<svg width="226" height="50" viewBox="0 0 226 50" fill="none" xmlns="http://www.w3.org/2000/svg">
<path d="M51.9445 8.86488H45.8118V33.1092H49.4022V24.1967H52.2604C54.9251 24.1967 56.8502 23.653 58.3246 22.4823C60.0096 21.096 60.977 18.9016 60.977 16.4598C60.977 11.5614 57.7711 8.86243 51.9469 8.86243M57.3498 16.5283C57.3498 18.3162 56.3432 19.7808 54.7096 20.3588C53.9969 20.6381 53.2327 20.7458 51.9788 20.7458H49.4022V12.3084H51.5943C52.9144 12.3084 53.8132 12.4333 54.6949 12.737C56.3579 13.3028 57.3498 14.7184 57.3498 16.5259" fill="black"/>
<path d="M68.0797 16.7585C67.8005 16.9765 67.5703 17.1945 67.3621 17.4541V16.0654H63.774V33.1117H67.3621V24.4661C67.3621 22.7272 67.5703 21.8675 68.2267 20.9172C68.9467 19.8543 70.0513 19.2689 71.3371 19.2689C71.5061 19.2689 71.7633 19.2689 72.0131 19.3008L72.5372 19.3669V15.6833H71.4424C70.1811 15.6833 68.954 16.0752 68.0797 16.761" fill="black"/>
<path d="M81.3689 15.6809C76.2379 15.6809 72.6548 19.3351 72.6548 24.5714C72.6548 29.8077 76.1963 33.4962 81.2661 33.4962C86.3359 33.4962 89.9802 29.6069 89.9802 24.6424C89.9802 19.678 86.3579 15.6834 81.3714 15.6834M86.3236 24.6082C86.3236 27.8533 84.2737 30.1188 81.3371 30.1188C78.4005 30.1188 76.3163 27.9047 76.3163 24.6082C76.3163 21.3116 78.3001 19.0608 81.3738 19.0608C84.4476 19.0608 86.3261 21.2381 86.3261 24.6082" fill="black"/>
<path d="M101.467 15.6809C99.1279 15.6809 97.4796 16.3838 96.0615 18.0517V16.0654H92.4735V40.9368H96.0615V31.4144C96.5587 31.9336 97.0314 32.2569 97.7294 32.6071C98.9246 33.2047 100.147 33.4962 101.467 33.4962C106.206 33.4962 109.517 29.7832 109.517 24.4661C109.517 19.1489 106.206 15.6809 101.467 15.6809ZM105.755 24.5714C105.755 27.9733 103.808 30.2584 100.908 30.2584C98.0086 30.2584 96.0615 28.1374 96.0615 24.8531C96.0615 21.3483 98.0503 18.9922 101.014 18.9922C102.324 18.9922 103.62 19.5628 104.477 20.5156C105.337 21.4708 105.755 22.7982 105.755 24.5739" fill="black"/>
<path d="M120.585 15.6809C115.616 15.6809 112.01 19.4478 112.01 24.64C112.01 29.8322 115.662 33.4938 120.69 33.4938C123.97 33.4938 126.875 31.7328 128.273 28.8991L128.501 28.4362L125.302 27.2435L125.106 27.5913C124.244 29.1244 122.51 30.1139 120.688 30.1139C119.084 30.1139 117.678 29.3987 116.725 28.0958C116.203 27.41 115.971 26.8638 115.831 25.9062H129.152L129.191 25.4825C129.228 25.0759 129.228 24.6155 129.228 24.3926C129.228 19.4257 125.513 15.6785 120.583 15.6785M115.895 23.0186C116.071 22.11 116.27 21.5957 116.635 21.0177C117.494 19.7465 118.969 18.9849 120.583 18.9849C122.197 18.9849 123.71 19.7392 124.638 20.9883C125.079 21.6202 125.297 22.1761 125.41 23.0186H115.892H115.895Z" fill="black"/>
<path d="M135.31 8.86487H131.722V33.1092H135.31V8.86487Z" fill="black"/>
<path d="M142.513 8.86487H138.925V33.1092H142.513V8.86487Z" fill="black"/>
<path d="M153.58 15.6809C148.611 15.6809 145.006 19.4478 145.006 24.64C145.006 29.8322 148.658 33.4938 153.686 33.4938C156.965 33.4938 159.87 31.7328 161.268 28.8991L161.496 28.4362L158.298 27.2435L158.102 27.5913C157.239 29.1244 155.505 30.1139 153.683 30.1139C152.079 30.1139 150.673 29.3987 149.721 28.0958C149.199 27.4076 148.966 26.8638 148.827 25.9062H162.148L162.187 25.4825C162.224 25.0759 162.224 24.6131 162.224 24.3926C162.224 19.4257 158.508 15.6785 153.578 15.6785M148.89 23.0186C149.067 22.11 149.263 21.5957 149.63 21.0177C150.49 19.7465 151.964 18.9849 153.578 18.9849C155.192 18.9849 156.706 19.7392 157.636 20.9883C158.077 21.6202 158.295 22.1761 158.41 23.0186H148.893H148.89Z" fill="black"/>
<path d="M172.432 15.6809C171.17 15.6809 169.943 16.0728 169.069 16.7585C168.79 16.9765 168.56 17.1945 168.354 17.4541V16.0654H164.766V33.1117H168.354V24.4661C168.354 22.7272 168.562 21.8675 169.218 20.9172C169.938 19.8543 171.041 19.2689 172.329 19.2689C172.498 19.2689 172.755 19.2689 173.005 19.3008L173.529 19.3669V15.6834H172.434L172.432 15.6809Z" fill="black"/>
<path d="M180.421 8.88202L171.574 33.1264H175.606L177.452 27.895H187.259L189.189 33.1264H193.193L184.288 8.88202H180.423H180.421ZM186.02 24.2971H178.689L182.415 14.3951L186.02 24.2971Z" fill="#14B082"/>
<path d="M206.835 17.7725C205.368 16.352 203.656 15.6809 201.533 15.6809C196.943 15.6809 193.482 19.5482 193.482 24.6743C193.482 29.8004 196.867 33.4938 201.533 33.4938C203.71 33.4938 205.353 32.7933 206.835 31.1891V33.1092H210.423V8.86487H206.835V17.7725ZM206.835 24.64C206.835 27.895 204.768 30.256 201.917 30.256C199.066 30.256 197.21 27.9758 197.21 24.7086C197.21 21.4414 199.172 18.9873 202.094 18.9873C205.015 18.9873 206.835 21.2577 206.835 24.6376" fill="#14B082"/>
<path d="M223.921 24.8702C223.076 24.0252 221.922 23.4717 219.801 22.8986C216.823 22.0732 216.541 21.6177 216.541 20.6209C216.541 19.4845 217.474 18.7791 218.976 18.7791C220.585 18.7791 221.587 19.5384 221.587 20.7605V21.3997H225.197L225.175 20.9123C225.025 17.6353 222.748 15.6809 219.081 15.6809C215.415 15.6809 212.953 17.7505 212.953 20.8315C212.953 23.4913 214.624 25.1298 218.373 26.1413C221.178 26.8516 221.692 27.4884 221.692 28.4876C221.692 29.6485 220.695 30.398 219.152 30.398C217.362 30.398 216.377 29.5996 216.225 28.0223L216.184 27.601H212.632L212.677 28.1056C212.975 31.5809 215.275 33.4962 219.152 33.4962C223.029 33.4962 225.351 31.4266 225.351 28.3456C225.351 27.0451 224.829 25.7788 223.921 24.8702Z" fill="#14B082"/>
<path d="M121.472 46.707C120.69 46.707 120.036 46.4205 119.507 45.8523C118.978 45.2816 118.714 44.591 118.714 43.7803C118.714 42.9696 118.978 42.2789 119.507 41.7083C120.036 41.1376 120.69 40.8535 121.472 40.8535C121.886 40.8535 122.27 40.9466 122.625 41.1303C122.98 41.314 123.257 41.5491 123.453 41.8332V40.9662H124.42V46.5944H123.453V45.7274C123.257 46.0115 122.983 46.2466 122.625 46.4303C122.268 46.614 121.883 46.707 121.472 46.707ZM121.619 45.818C122.175 45.818 122.633 45.6221 122.993 45.2326C123.353 44.8432 123.534 44.3583 123.534 43.7803C123.534 43.2023 123.353 42.7173 122.993 42.3279C122.633 41.9385 122.175 41.7426 121.619 41.7426C121.063 41.7426 120.595 41.9385 120.232 42.3279C119.872 42.7198 119.691 43.2023 119.691 43.7803C119.691 44.3583 119.872 44.8432 120.232 45.2326C120.592 45.6221 121.055 45.818 121.619 45.818Z" fill="black"/>
<path d="M128.562 46.7071C127.781 46.7071 127.127 46.4205 126.598 45.8523C126.069 45.2816 125.804 44.591 125.804 43.7803C125.804 42.9696 126.069 42.2789 126.598 41.7083C127.127 41.1376 127.781 40.8535 128.562 40.8535C128.976 40.8535 129.361 40.9466 129.716 41.1303C130.071 41.314 130.348 41.5491 130.543 41.8332V38.1521H131.511V46.5944H130.543V45.7274C130.348 46.0115 130.073 46.2466 129.716 46.4303C129.358 46.614 128.974 46.7071 128.562 46.7071ZM128.709 45.818C129.265 45.818 129.723 45.6221 130.083 45.2327C130.443 44.8432 130.624 44.3583 130.624 43.7803C130.624 43.2023 130.443 42.7174 130.083 42.3279C129.723 41.9385 129.265 41.7426 128.709 41.7426C128.153 41.7426 127.685 41.9385 127.323 42.3279C126.963 42.7198 126.782 43.2023 126.782 43.7803C126.782 44.3583 126.963 44.8432 127.323 45.2327C127.683 45.6221 128.146 45.818 128.709 45.818Z" fill="black"/>
<path d="M135.094 46.5944L132.493 40.9662H133.573L135.498 45.2326L137.423 40.9662H138.503L135.902 46.5944H135.094Z" fill="black"/>
<path d="M141.758 46.707C140.94 46.707 140.262 46.4303 139.725 45.8743C139.189 45.3184 138.92 44.6203 138.92 43.7803C138.92 42.9402 139.179 42.2324 139.701 41.6813C140.223 41.1303 140.916 40.8535 141.778 40.8535C142.64 40.8535 143.331 41.1621 143.828 41.7769C144.322 42.3916 144.54 43.1459 144.482 44.0399H139.899C139.914 44.5493 140.103 44.9755 140.463 45.3184C140.823 45.6588 141.259 45.8302 141.768 45.8302C142.535 45.8302 143.078 45.5143 143.399 44.8849H144.391C144.249 45.4114 143.945 45.8449 143.48 46.1903C143.015 46.5356 142.439 46.7095 141.758 46.7095M142.863 42.1099C142.554 41.843 142.182 41.7107 141.748 41.7107C141.315 41.7107 140.925 41.843 140.583 42.1051C140.24 42.3671 140.029 42.759 139.946 43.2758H143.458C143.367 42.7663 143.169 42.3769 142.86 42.1099" fill="black"/>
<path d="M145.878 46.5944V40.9662H146.845V42.0585C146.95 41.7132 147.154 41.4364 147.457 41.2258C147.761 41.0152 148.082 40.9099 148.42 40.9099C148.584 40.9099 148.731 40.9245 148.858 40.9564V41.9581C148.724 41.8969 148.547 41.8675 148.329 41.8675C147.94 41.8675 147.595 42.0365 147.293 42.3745C146.992 42.7124 146.843 43.19 146.843 43.8048V46.5968H145.875L145.878 46.5944Z" fill="black"/>
<path d="M152.182 46.6507C151.665 46.6507 151.249 46.5037 150.933 46.2123C150.617 45.9184 150.46 45.4922 150.46 44.9289V41.8552H149.267V40.9661H150.46V39.4011H151.428V40.9661H153.049V41.8552H151.428V44.804C151.428 45.1567 151.501 45.4041 151.653 45.5461C151.802 45.6882 152.04 45.7592 152.363 45.7592C152.647 45.7592 152.877 45.7224 153.049 45.6465V46.5135C152.779 46.6042 152.49 46.6482 152.182 46.6482" fill="black"/>
<path d="M155.268 39.2591C155.14 39.3914 154.979 39.4551 154.783 39.4551C154.587 39.4551 154.423 39.3889 154.288 39.2591C154.153 39.1269 154.085 38.9652 154.085 38.7693C154.085 38.5733 154.151 38.419 154.288 38.2843C154.423 38.1496 154.589 38.0811 154.783 38.0811C154.976 38.0811 155.14 38.1496 155.268 38.2843C155.395 38.419 155.459 38.5807 155.459 38.7693C155.459 38.9579 155.395 39.1269 155.268 39.2591ZM154.288 40.9637H155.256V46.5919H154.288V40.9637Z" fill="black"/>
<path d="M158.902 46.707C158.273 46.707 157.744 46.5527 157.32 46.2466C156.897 45.938 156.661 45.5119 156.617 44.9632H157.609C157.668 45.2792 157.822 45.5118 158.065 45.6612C158.307 45.8106 158.591 45.8866 158.915 45.8866C159.238 45.8866 159.498 45.8229 159.696 45.6955C159.894 45.5682 159.995 45.3845 159.995 45.1445C159.995 44.9191 159.921 44.7355 159.777 44.5934C159.63 44.4514 159.392 44.3338 159.062 44.2432L158.251 44.0301C157.283 43.7754 156.799 43.2243 156.799 42.3745C156.799 41.9165 156.98 41.5491 157.345 41.2699C157.707 40.9931 158.175 40.8535 158.746 40.8535C159.316 40.8535 159.799 41.0054 160.169 41.3091C160.541 41.6128 160.749 41.9973 160.793 42.4626H159.826C159.75 42.2153 159.618 42.0193 159.427 41.8773C159.235 41.7352 159.008 41.6642 158.746 41.6642C158.466 41.6642 158.236 41.7279 158.053 41.8552C157.869 41.9826 157.776 42.1516 157.776 42.3622C157.776 42.5728 157.842 42.7296 157.979 42.8569C158.114 42.9843 158.332 43.0896 158.633 43.1729L159.534 43.4105C160.494 43.6505 160.974 44.2064 160.974 45.0759C160.974 45.6172 160.783 46.0237 160.401 46.298C160.019 46.5723 159.52 46.7095 158.905 46.7095" fill="black"/>
<path d="M163.328 39.2591C163.201 39.3914 163.039 39.4551 162.843 39.4551C162.647 39.4551 162.483 39.3889 162.348 39.2591C162.214 39.1269 162.145 38.9652 162.145 38.7693C162.145 38.5733 162.214 38.419 162.348 38.2843C162.483 38.1496 162.65 38.0811 162.843 38.0811C163.037 38.0811 163.201 38.1496 163.328 38.2843C163.455 38.419 163.519 38.5807 163.519 38.7693C163.519 38.9579 163.455 39.1269 163.328 39.2591ZM162.348 40.9637H163.316V46.5919H162.348V40.9637Z" fill="black"/>
<path d="M165.15 46.5944V40.9662H166.118V41.8332C166.5 41.1793 167.097 40.8535 167.908 40.8535C168.545 40.8535 169.059 41.0593 169.451 41.4732C169.84 41.8871 170.036 42.4381 170.036 43.1288V46.5968H169.079V43.2758C169.079 42.8031 168.959 42.4308 168.719 42.1565C168.479 41.8822 168.155 41.745 167.751 41.745C167.286 41.745 166.897 41.9287 166.585 42.2961C166.274 42.6635 166.118 43.168 166.118 43.8048V46.5968H165.15V46.5944Z" fill="black"/>
<path d="M174.259 49.0607C173.517 49.0607 172.899 48.8795 172.407 48.5145C171.915 48.1496 171.626 47.6843 171.535 47.1136H172.481C172.728 47.841 173.328 48.2059 174.281 48.2059C174.815 48.2059 175.243 48.0345 175.569 47.6941C175.895 47.3536 176.059 46.8736 176.059 46.2588V45.5951C175.856 45.8964 175.581 46.1364 175.238 46.3152C174.893 46.4964 174.513 46.5846 174.102 46.5846C173.313 46.5846 172.657 46.3078 172.133 45.7568C171.606 45.2057 171.344 44.5248 171.344 43.7141C171.344 42.9035 171.609 42.2324 172.138 41.6813C172.667 41.1303 173.321 40.8535 174.102 40.8535C174.516 40.8535 174.893 40.9441 175.238 41.1229C175.584 41.3042 175.858 41.5393 176.059 41.8307V40.9637H177.026V46.2441C177.026 47.1454 176.767 47.8386 176.245 48.3259C175.723 48.8133 175.062 49.0582 174.259 49.0582M172.863 45.1224C173.215 45.4947 173.673 45.6784 174.237 45.6784C174.8 45.6784 175.258 45.4922 175.611 45.1224C175.963 44.7501 176.14 44.2799 176.14 43.7093C176.14 43.1386 175.961 42.6684 175.606 42.2961C175.248 41.9238 174.793 41.7377 174.237 41.7377C173.681 41.7377 173.225 41.9238 172.868 42.2961C172.513 42.6684 172.334 43.1386 172.334 43.7093C172.334 44.2799 172.51 44.7501 172.863 45.1224Z" fill="black"/>
<path d="M182.535 48.948H181.567V40.9662H182.535V41.8332C182.731 41.5491 183.005 41.314 183.362 41.1303C183.718 40.9466 184.104 40.8535 184.516 40.8535C185.297 40.8535 185.951 41.1401 186.48 41.7083C187.009 42.2789 187.274 42.9696 187.274 43.7803C187.274 44.591 187.009 45.2816 186.48 45.8523C185.951 46.4229 185.295 46.707 184.516 46.707C184.104 46.707 183.718 46.614 183.362 46.4303C183.005 46.2466 182.731 46.0115 182.535 45.7274V48.948ZM182.995 45.2326C183.355 45.6221 183.813 45.818 184.369 45.818C184.925 45.818 185.383 45.6221 185.743 45.2326C186.103 44.8432 186.284 44.3583 186.284 43.7803C186.284 43.2023 186.105 42.7173 185.743 42.3279C185.383 41.9385 184.925 41.7426 184.369 41.7426C183.813 41.7426 183.355 41.9385 182.995 42.3279C182.635 42.7173 182.454 43.2023 182.454 43.7803C182.454 44.3583 182.635 44.8432 182.995 45.2326Z" fill="black"/>
<path d="M189.637 38.1521H188.67V46.5944H189.637V38.1521Z" fill="black"/>
<path d="M193.791 46.707C193.01 46.707 192.356 46.4205 191.827 45.8523C191.298 45.2816 191.033 44.591 191.033 43.7803C191.033 42.9696 191.298 42.2789 191.827 41.7083C192.356 41.1376 193.01 40.8535 193.791 40.8535C194.205 40.8535 194.589 40.9466 194.945 41.1303C195.3 41.314 195.576 41.5491 195.772 41.8332V40.9662H196.74V46.5944H195.772V45.7274C195.576 46.0115 195.302 46.2466 194.945 46.4303C194.587 46.614 194.202 46.707 193.791 46.707ZM193.938 45.818C194.494 45.818 194.952 45.6221 195.312 45.2326C195.672 44.8432 195.853 44.3583 195.853 43.7803C195.853 43.2023 195.672 42.7173 195.312 42.3279C194.952 41.9385 194.494 41.7426 193.938 41.7426C193.382 41.7426 192.914 41.9385 192.552 42.3279C192.192 42.7198 192.01 43.2023 192.01 43.7803C192.01 44.3583 192.192 44.8432 192.552 45.2326C192.912 45.6221 193.375 45.818 193.938 45.818Z" fill="black"/>
<path d="M200.749 46.6507C200.232 46.6507 199.816 46.5037 199.5 46.2123C199.184 45.9184 199.027 45.4922 199.027 44.9289V41.8552H197.834V40.9661H199.027V39.4011H199.995V40.9661H201.616V41.8552H199.995V44.804C199.995 45.1567 200.068 45.4041 200.22 45.5461C200.369 45.6882 200.607 45.7592 200.93 45.7592C201.214 45.7592 201.445 45.7224 201.616 45.6465V46.5135C201.347 46.6042 201.058 46.6482 200.749 46.6482" fill="black"/>
<path d="M203.326 46.5944V41.8552H202.133V40.9662H203.326V39.8298C203.326 39.2664 203.482 38.8354 203.798 38.5342C204.114 38.2329 204.531 38.0835 205.047 38.0835C205.356 38.0835 205.647 38.1325 205.927 38.2305V39.0852C205.753 39.0093 205.52 38.9725 205.229 38.9725C204.905 38.9725 204.67 39.0436 204.518 39.1856C204.369 39.3277 204.293 39.575 204.293 39.9277V40.9637H205.927V41.8528H204.293V46.5919H203.326V46.5944Z" fill="black"/>
<path d="M209.338 46.707C208.491 46.707 207.788 46.4229 207.227 45.8572C206.669 45.2914 206.387 44.5983 206.387 43.7803C206.387 42.9623 206.666 42.2691 207.227 41.7034C207.785 41.1376 208.491 40.8535 209.338 40.8535C210.186 40.8535 210.879 41.1376 211.437 41.7034C211.996 42.2691 212.275 42.9623 212.275 43.7803C212.275 44.5983 211.996 45.2914 211.437 45.8572C210.879 46.4229 210.178 46.707 209.338 46.707ZM207.925 45.2204C208.29 45.6098 208.76 45.8058 209.338 45.8058C209.916 45.8058 210.386 45.6098 210.746 45.2204C211.107 44.831 211.285 44.3509 211.285 43.7803C211.285 43.2096 211.107 42.7296 210.746 42.3402C210.386 41.9507 209.916 41.7548 209.338 41.7548C208.76 41.7548 208.29 41.9507 207.925 42.3402C207.56 42.7296 207.379 43.2096 207.379 43.7803C207.379 44.3509 207.56 44.831 207.925 45.2204Z" fill="black"/>
<path d="M213.661 46.5944V40.9662H214.629V42.0585C214.734 41.7132 214.937 41.4364 215.241 41.2258C215.545 41.0152 215.865 40.9099 216.203 40.9099C216.367 40.9099 216.514 40.9245 216.642 40.9564V41.9581C216.507 41.8969 216.331 41.8675 216.113 41.8675C215.723 41.8675 215.378 42.0365 215.077 42.3745C214.776 42.7124 214.626 43.19 214.626 43.8048V46.5968H213.659L213.661 46.5944Z" fill="black"/>
<path d="M225.033 46.5944V43.2855C225.033 42.8202 224.937 42.4479 224.746 42.1638C224.555 41.8822 224.278 41.7426 223.918 41.7426C223.468 41.7426 223.103 41.9189 222.821 42.2716C222.539 42.6243 222.39 43.1043 222.375 43.7117V46.5944H221.408V43.2855C221.408 42.8128 221.312 42.4381 221.121 42.1589C220.93 41.8822 220.658 41.7426 220.306 41.7426C219.84 41.7426 219.466 41.9287 219.179 42.301C218.895 42.6732 218.751 43.1729 218.751 43.8048V46.5968H217.783V40.9686H218.751V41.8356C219.111 41.1817 219.679 40.856 220.45 40.856C221.305 40.856 221.883 41.2576 222.184 42.0609C222.334 41.6936 222.574 41.3997 222.904 41.1817C223.235 40.9637 223.61 40.856 224.031 40.856C224.638 40.856 225.118 41.0617 225.471 41.4756C225.824 41.8895 226 42.443 226 43.141V46.5968H225.033V46.5944Z" fill="black"/>
<path d="M20.8229 29.6216L19.8702 2.72233L8.24638 0.939331L15.9711 27.2386L0 37.6206L7.22018 46.4082L16.096 32.9231L40.2179 45.9968L43.4728 36.2246L20.8229 29.6216Z" fill="#14B082"/>
<path d="M10.0833 13.0897L8.41295 7.6868L1.1438 6.61652L12.4859 27.4467L13.2329 27.0353L14.0265 26.5185L10.0833 13.0897Z" fill="black"/>
<path d="M11.7095 42.8471L16.6029 46.6948L18.1361 36.0237L16.6691 35.2596L11.7095 42.8471Z" fill="black"/>
<path d="M37.4944 32.5459L38.4569 27.9929L22.3781 26.5895L22.4393 28.304L37.4944 32.5459Z" fill="black"/>
</svg>
