<svg width="115" height="60" viewBox="0 0 115 60" fill="#1c3440" xmlns="http://www.w3.org/2000/svg">
<path fill-rule="evenodd" clip-rule="evenodd" d="M0.357426 31.4773H3.33602V13.1006H0.357422L0.357426 31.4773Z" fill="#1c3440"/>
<path fill-rule="evenodd" clip-rule="evenodd" d="M9.57188 31.4624H6.58398V18.6666H9.49488V20.375C10.3193 18.9021 11.8123 18.2988 13.2058 18.2988C16.2707 18.2988 17.7393 20.5588 17.7393 23.3704V31.4624H14.7514V23.8952C14.7514 22.3189 14.0565 21.0568 12.1748 21.0568C10.4733 21.0568 9.57188 22.3975 9.57188 24.0791V31.4624Z" fill="#1c3440"/>
<path fill-rule="evenodd" clip-rule="evenodd" d="M22.7695 33.9938C22.7695 27.9244 27.2279 24.272 31.9661 24.272C36.6047 24.272 39.3616 27.0568 40.1842 30.3165L37.2752 31.3144C36.7343 29.0544 35.0328 27.2425 31.9661 27.2425C28.9538 27.2425 25.9377 29.4757 25.9377 33.9938C25.9377 38.3549 28.8768 40.6666 31.9924 40.6666C35.0591 40.6666 36.8113 38.6709 37.4292 36.5679L40.2631 37.5141C39.4386 40.6666 36.6573 43.6888 31.9924 43.6888C27.072 43.6888 22.7695 40.0633 22.7695 33.9938Z" fill="#1c3440"/>
<path fill-rule="evenodd" clip-rule="evenodd" d="M51.0567 36.8836C51.0567 34.2309 49.4078 32.8635 47.5542 32.8635C45.7232 32.8635 44.0499 34.2309 44.0499 36.8836C44.0499 39.5381 45.7232 40.9554 47.5542 40.9554C49.4078 40.9554 51.0567 39.563 51.0567 36.8836ZM54.0743 36.8831C54.0743 40.8247 51.3174 43.688 47.5577 43.688C43.8223 43.688 41.0654 40.8247 41.0654 36.8831C41.0654 32.9683 43.8223 30.105 47.5577 30.105C51.3174 30.105 54.0743 32.9683 54.0743 36.8831Z" fill="#1c3440"/>
<path fill-rule="evenodd" clip-rule="evenodd" d="M60.8485 43.6626C57.8606 43.6626 56.1104 41.4026 56.1104 38.5661V30.499H59.0964V38.0145C59.0964 39.5907 59.8194 40.9295 61.6223 40.9295C63.3481 40.9295 64.2515 39.7478 64.2515 38.0662V30.499H67.2375V40.9563C67.2375 42.0078 67.3145 42.8218 67.3689 43.2948H64.5069C64.4562 43.0056 64.4055 42.4023 64.4055 41.8756C63.7857 43.0325 62.3171 43.6626 60.8485 43.6626Z" fill="#1c3440"/>
<path fill-rule="evenodd" clip-rule="evenodd" d="M73.4498 43.2954H70.4619V30.4996H73.3728V32.208C74.1954 30.7351 75.6903 30.1318 77.0837 30.1318C80.1467 30.1318 81.6172 32.3918 81.6172 35.2015V43.2954H78.6293V35.7282C78.6293 34.152 77.9326 32.8898 76.0527 32.8898C74.3512 32.8898 73.4498 34.2305 73.4498 35.9121V43.2954Z" fill="#1c3440"/>
<path fill-rule="evenodd" clip-rule="evenodd" d="M88.3902 30.4988H90.9931V33.205H88.3902V39.1442C88.3902 40.2742 88.8804 40.7473 89.9884 40.7473C90.3978 40.7473 90.888 40.6669 91.0175 40.6401V43.1624C90.8373 43.2429 90.2701 43.4516 89.1884 43.4516C86.869 43.4516 85.4267 42.0324 85.4267 39.6422V33.205H83.1074V30.4988H83.7516C85.0925 30.4988 85.6859 29.6312 85.6859 28.5031V26.584H88.3902V30.4988Z" fill="#1c3440"/>
<path fill-rule="evenodd" clip-rule="evenodd" d="M100.527 33.5201C100.192 33.4684 99.8581 33.4416 99.5482 33.4416C97.2289 33.4416 96.1734 34.8072 96.1734 37.1994V43.2956H93.1855V30.4979H96.0964V32.5491C96.688 31.1567 98.0796 30.3408 99.7285 30.3408C100.091 30.3408 100.399 30.3944 100.527 30.4193V33.5201Z" fill="#1c3440"/>
<path fill-rule="evenodd" clip-rule="evenodd" d="M103.464 48.4708L106.476 41.7713L101.118 30.5H104.495L108.101 38.592L111.475 30.5H114.643L106.658 48.4708H103.464Z" fill="#1c3440"/>
<mask id="mask0" style="mask-type:alpha" maskUnits="userSpaceOnUse" x="6" y="0" width="54" height="24">
<path fill-rule="evenodd" clip-rule="evenodd" d="M6.54688 0H59.3862V23.6888H6.54688V0Z" fill="#1c3440"/>
</mask>
<g mask="url(#mask0)">
<path fill-rule="evenodd" clip-rule="evenodd" d="M9.80895 10.4683V3.32627H56.1222V23.6874H59.3862V-0.00244141H6.54688V10.4683H9.80895Z" fill="#1c3440"/>
</g>
<path fill-rule="evenodd" clip-rule="evenodd" d="M56.1222 49.8544V56.6727H9.80895V37.3535H6.54688V59.9995H59.3862V49.8544H56.1222Z" fill="#1c3440"/>
</svg>
